<?xml version="1.0" encoding="utf-8"?>
<!-- Generator: Adobe Illustrator 26.0.0, SVG Export Plug-In . SVG Version: 6.00 Build 0)  -->
<svg version="1.0" id="Layer_1" xmlns="http://www.w3.org/2000/svg" xmlns:xlink="http://www.w3.org/1999/xlink" x="0px" y="0px"
	 viewBox="0 0 595.28 841.89" style="enable-background:new 0 0 595.28 841.89;" xml:space="preserve">
<style type="text/css">
	.st0{fill:#194F73;}
	.st1{fill:#144C70;}
	.st2{fill:#28A4C6;}
	.st3{fill:#2EA5C7;}
	.st4{fill:#1D4F73;}
	.st5{fill:#154063;}
	.st6{fill:#FEFEFF;}
</style>
<g>
	<path class="st0" d="M148.38,335.14c0.43-0.7,0.97-1.32,1.65-1.43c-0.02,1.22-0.78,2.71-1.2,3.87c-0.49,1.36-1.02,2.7-1.57,4.03
		c-1.08,2.61-2.26,5.18-3.44,7.74c-0.23,0.51-2.13,5.41-2.38,5.39c-0.66-0.04-1.3,0.17-1.93,0.38c-1.54,0.51-3.07,1.03-4.61,1.54
		c1.97-1.45,4.16-2.6,6.47-3.4c0.15-0.05,0.32-0.1,0.45-0.01s0.08,0.35-0.07,0.32c-0.5-0.54-0.72-1.29-1.08-1.94
		s-0.98-1.27-1.72-1.22c0.74,0.12,1.46,0.33,2.15,0.6c0.23,0.09,0.47,0.2,0.62,0.39c0.33,0.44,0.03,1.12-0.46,1.38
		s-1.07,0.22-1.62,0.17c0.71-0.31,1.7-0.56,2.15,0.08c0.62,0.87-0.81,2.67-1.23,3.43c-0.73,1.32-1.51,2.63-2.32,3.9
		c-1.62,2.56-3.41,5.01-5.35,7.34c-0.96,1.15-4.43,3.67-5.49,1.33c-0.18-0.4-0.19-0.84-0.24-1.28c-0.07-0.73-0.24-1.46-0.35-2.19
		c-0.49-3.21-0.04-6.6,0.26-9.81c0.31-3.35,0.77-6.68,1.13-10.03c0.1-0.9,0.15-1.83,0.56-2.63c0.62-1.22,1.48,1.03,1.78,1.5
		c0.93,1.48,2.41,2.89,4.22,3.11c1.75,0.21,3.43-0.73,4.84-1.78c3.28-2.43,5.99-5.66,7.92-9.25
		C147.77,336.27,148.04,335.68,148.38,335.14z"/>
	<path class="st1" d="M67.98,480.91c3.77-13.47,8.97-17.6,22.67-15.65c4.27,0.61,4.09-1.75,4.87-3.5c2.02-4.53,3.43-9.34,5.42-13.88
		c0.73-1.67,0.89-3.44,3.64-4.57c5.46-2.24,1.24-12.24,9.35-13.41c-5.02-5.08-5.19-8.13,3.18-7.6c-3.21-6.76,1.55-10.24,5.75-13.94
		c-9.39-8.37-3.62-20.06-6.47-29.9c-1.86-6.4,1.08-11.8,5.46-18.38c1.46,6.72-1.25,14.43,5.61,15.74
		c7.15,1.37,10.57-5.55,13.83-10.71c6.84-10.84,11.15-22.86,15.21-34.96c7.52-22.4,27.18-29.83,48.04-18.2
		c3.27,1.82,6.37,3.85,8.99,7.38c-5.96,1.74-11.82,3.04-17.34,5.19c-5.45,2.13-10.49,5.23-15.02,11.16
		c6.99-1.01,14.08-8.55,16.52-5.85c7.14,7.9,13.88-0.84,20.41,1.63c2.47,0.94,5.17,0.56,7.09,3.27c2.52,3.56,3.89,5.02-2.22,6.27
		c-12.22,2.49-24.92,4.28-35.17,12.53c-6.74,4.08-11.96,9.8-17.04,15.68c-13.06,15.11-23.35,32.12-33.76,49.05
		c-13.82,22.47-26.53,45.65-42.7,66.61c-3.23,4.18-6.52,8.38-11.26,10.98c-8.29,4.55-14.81,0.9-15.14-8.42
		C67.84,485.26,67.95,483.08,67.98,480.91z"/>
	<path class="st2" d="M189.71,405.9c7.77-8.83,17.32-16.03,23.96-25.91c1.71-2.55,4.33-5.49,1.92-8.33c-2.37-2.8-5.74-0.73-8.6,0.37
		c-9.54,3.69-16.94,10.25-23.44,17.88c-17.58,20.63-31.11,44.09-46.2,66.46c-8.85,13.13-17.69,26.3-29.06,37.44
		c-7.61,7.46-15.98,13.79-27.05,15.29c-15.34,2.07-18.98-1.2-18.39-16.71c8.51,13.34,16.37,14.24,28.25,3.14
		c1.58-1.47,2.89-3.23,4.26-4.91c12.44-15.2,22.3-32.12,32.57-48.78c18.06-29.3,33.94-60.19,60.13-83.65
		c10.68-7.59,22.88-11.02,35.66-11.59c17.6-0.77,24.19,10.02,16.59,26.24c-9.34,19.94-25.01,33.7-43.72,44.44
		C192.15,414.79,194.18,408.38,189.71,405.9z"/>
	<path class="st3" d="M189.71,405.9c4.47,2.48,2.43,8.9,6.89,11.39c-18.15,10.04-21.98,25.36-16.31,44.2
		c0.26,0.88,0.17,1.86,0.32,2.77c3.7,22.18,3.71,22.18-19.96,25.13c10.81-4.66,8.63-12.46,6.55-20.5
		c-1.39-5.39-2.15-10.95-3.05-16.46c-3.03-18.69,6.48-31.39,20.22-42.03c1.19,0.45,2.38,0.9,3.57,1.36c0.27,0.14,0.54,0.28,0.8,0.42
		c-0.26-0.15-0.52-0.3-0.77-0.45c-0.06-1.39-0.12-2.78-0.19-4.18C188.43,406.99,189.07,406.44,189.71,405.9z"/>
	<path class="st4" d="M128.37,509.13c17.97-9.6,36.7-16.25,57.92-14.84c-0.98,4.84-6.75,4.09-8.68,8.37
		c10.35,1.51,20.53,3,30.71,4.48c-19.63,3.23-39.43,1.16-59.14,1.81c-3.26,0.11-6.86-1.22-9.7,1.62
		C135.73,510.5,131.7,512.49,128.37,509.13z"/>
	<path class="st5" d="M234.25,509.32c-2.13,1.7-4.7,1.49-7.14,1.48c-29.21-0.04-58.42-0.14-87.63-0.22c2.84-2.84,6.44-1.51,9.7-1.62
		c19.71-0.65,39.5,1.42,59.14-1.81C216.96,507.87,225.61,508.59,234.25,509.32z"/>
	<path class="st2" d="M187.79,407.54c0.06,1.39,0.12,2.78,0.19,4.18l-0.03,0.03c-1.19-0.45-2.38-0.9-3.57-1.36
		C185.52,409.44,186.66,408.49,187.79,407.54z"/>
	<path class="st6" d="M319.5,434.74c-0.52,1.32-1.03,2.63-1.55,3.95c-1.84-1.74-0.85-3.49-0.01-5.24
		C318.46,433.88,318.98,434.31,319.5,434.74z"/>
	<path class="st2" d="M187.98,411.72c0.26,0.15,0.52,0.3,0.77,0.45c-0.27-0.14-0.54-0.28-0.8-0.42
		C187.95,411.75,187.98,411.72,187.98,411.72z"/>
	<g>
		<path class="st2" d="M242.81,421.02v47.9c0,5.05-3.09,9.43-7.63,11.64c-1.91,1.03-4.11,1.7-6.44,1.91
			c-1.78,0.16-2.66,0.27-5.71,0.31c-0.84,0.01-1.59,0.02-2.15,0.02c-2.46,0-4.79-0.14-6.96-0.33c-3.71-0.32-7.09-1.48-9.52-3.86
			c-0.3-0.25-0.58-0.52-0.82-0.78c-2.34-2.34-3.78-5.47-3.78-8.9v-47.9c2.5,0,4.85,0.59,6.9,1.62c4.44,2.24,7.45,6.57,7.45,11.55
			v32.58c0,0.95,0.36,1.88,1.07,2.51c0.62,0.55,1.43,0.86,2.42,0.86l0,0l5.62,0.02v0l1.73,0.01l0.02-0.03c0.02,0,0.03,0,0.05,0
			c1.9-0.02,3.4-1.62,3.4-3.52v-32.42c0-5.07,3.12-9.47,7.7-11.67C238.15,421.56,240.41,421.02,242.81,421.02z"/>
		<path class="st2" d="M298.5,420.44v47.61c0,7.24-6.18,13.17-13.42,13.17v-4.75l-24.43-32.7v24.35c0,7.24-5.87,13.11-13.11,13.11
			v-47.67c0-7.24,5.87-13.11,13.11-13.11l24.43,35.23v-22.12C285.08,426.3,291.26,420.44,298.5,420.44z"/>
		<path class="st2" d="M356.02,420.44v47.61c0,7.24-6.18,13.17-13.42,13.17v-4.75l-24.43-32.7v24.35c0,7.24-5.87,13.11-13.11,13.11
			v-47.67c0-7.24,5.87-13.11,13.11-13.11l24.43,35.23v-22.12C342.6,426.3,348.78,420.44,356.02,420.44z"/>
		<path class="st2" d="M376.62,420.41v47.86c0,7.12-6.29,12.88-14.04,12.88V433.3C362.59,426.18,368.87,420.41,376.62,420.41z"/>
		<path class="st2" d="M432.5,420.44v47.61c0,7.24-6.18,13.17-13.42,13.17v-4.75l-24.43-32.7v24.35c0,7.24-5.87,13.11-13.11,13.11
			v-47.67c0-7.24,5.87-13.11,13.11-13.11l24.43,35.23v-22.12C419.08,426.3,425.26,420.44,432.5,420.44z"/>
		<path class="st2" d="M439.07,467.88v-34.33c0-0.06,0-0.11,0-0.17h0c0-7.57,4.6-12.51,11.39-12.86v-0.02h25.83v3.42
			c0,6.25-4.35,11.03-11.16,11.03v-1.57h-8.78c-1.8,0.19-3.44,1.64-3.74,3.47c-0.03,0.19-0.05,0.38-0.05,0.58v4.15
			c0,0.21,0.02,0.42,0.05,0.63v22.53c0.3,1.95,1.57,3.32,3.6,3.32h13.72v-9.1c0-0.44,0.03-0.84,0.07-1.24
			c-5.39-0.99-8.82-4.88-8.82-11.29h12.6c9.83,0,8.33,9.67,8.33,13.58l-0.04,9.23c0,6.15-4.62,10.7-9.99,11.7l-20.05-0.05
			c-2.92-0.24-5.59-1.29-7.73-2.91c-1.77-1.33-3.24-3.04-4.15-5C439.45,471.41,439.07,469.69,439.07,467.88z"/>
	</g>
</g>
</svg>
